<svg width="127" height="41" viewBox="0 0 127 41" fill="none" xmlns="http://www.w3.org/2000/svg">
<path d="M49.0994 28H44.201V14.1818H49.1399C50.5298 14.1818 51.7263 14.4585 52.7294 15.0117C53.7325 15.5605 54.5039 16.3499 55.0437 17.38C55.588 18.41 55.8601 19.6425 55.8601 21.0774C55.8601 22.5168 55.588 23.7538 55.0437 24.7884C54.5039 25.8229 53.728 26.6168 52.7159 27.1701C51.7083 27.7234 50.5028 28 49.0994 28ZM47.1225 25.4968H48.978C49.8416 25.4968 50.5681 25.3439 51.1573 25.038C51.7511 24.7276 52.1964 24.2486 52.4933 23.6009C52.7946 22.9486 52.9453 22.1075 52.9453 21.0774C52.9453 20.0563 52.7946 19.2219 52.4933 18.5742C52.1964 17.9265 51.7533 17.4497 51.1641 17.1438C50.5748 16.8379 49.8484 16.685 48.9847 16.685H47.1225V25.4968ZM62.6933 28.2024C61.6272 28.2024 60.7096 27.9865 59.9404 27.5547C59.1758 27.1184 58.5865 26.5021 58.1727 25.706C57.7588 24.9053 57.5519 23.9585 57.5519 22.8654C57.5519 21.7994 57.7588 20.8638 58.1727 20.0586C58.5865 19.2534 59.169 18.6259 59.9202 18.1761C60.6759 17.7263 61.562 17.5014 62.5786 17.5014C63.2623 17.5014 63.8988 17.6116 64.488 17.832C65.0818 18.0479 65.599 18.3741 66.0399 18.8104C66.4852 19.2467 66.8315 19.7955 67.0789 20.4567C67.3263 21.1134 67.45 21.8826 67.45 22.7642V23.5536H58.699V21.7724H64.7444C64.7444 21.3585 64.6544 20.992 64.4745 20.6726C64.2946 20.3532 64.045 20.1036 63.7256 19.9237C63.4107 19.7392 63.0441 19.647 62.6258 19.647C62.1895 19.647 61.8026 19.7482 61.4653 19.9506C61.1324 20.1486 60.8715 20.4162 60.6826 20.7536C60.4937 21.0864 60.397 21.4575 60.3925 21.8668V23.5604C60.3925 24.0732 60.4869 24.5162 60.6759 24.8896C60.8693 25.2629 61.1414 25.5508 61.4923 25.7532C61.8431 25.9556 62.2592 26.0568 62.7405 26.0568C63.0599 26.0568 63.3522 26.0118 63.6176 25.9219C63.883 25.8319 64.1102 25.697 64.2991 25.517C64.488 25.3371 64.632 25.1167 64.7309 24.8558L67.3893 25.0312C67.2544 25.67 66.9777 26.2277 66.5594 26.7045C66.1456 27.1768 65.6103 27.5457 64.9536 27.8111C64.3013 28.072 63.5479 28.2024 62.6933 28.2024ZM69.3257 31.8864V17.6364H72.1595V19.3771H72.2877C72.4137 19.0982 72.5959 18.8149 72.8343 18.527C73.0771 18.2346 73.392 17.9917 73.7789 17.7983C74.1702 17.6004 74.656 17.5014 75.2362 17.5014C75.9919 17.5014 76.6891 17.6993 77.3279 18.0952C77.9666 18.4865 78.4771 19.078 78.8595 19.8697C79.2418 20.6568 79.433 21.6442 79.433 22.8317C79.433 23.9877 79.2463 24.9638 78.873 25.7599C78.5041 26.5516 78.0003 27.1521 77.3616 27.5614C76.7274 27.9663 76.0167 28.1687 75.2295 28.1687C74.6717 28.1687 74.1972 28.0765 73.8058 27.892C73.419 27.7076 73.1019 27.476 72.8545 27.1971C72.6071 26.9137 72.4182 26.6281 72.2877 26.3402H72.2V31.8864H69.3257ZM72.1393 22.8182C72.1393 23.4344 72.2248 23.9719 72.3957 24.4308C72.5666 24.8896 72.814 25.2472 73.1379 25.5036C73.4617 25.7554 73.8553 25.8814 74.3186 25.8814C74.7864 25.8814 75.1823 25.7532 75.5061 25.4968C75.83 25.2359 76.0751 24.8761 76.2416 24.4173C76.4125 23.954 76.498 23.4209 76.498 22.8182C76.498 22.2199 76.4147 21.6937 76.2483 21.2393C76.0819 20.785 75.8367 20.4297 75.5129 20.1733C75.189 19.9169 74.7909 19.7887 74.3186 19.7887C73.8508 19.7887 73.455 19.9124 73.1311 20.1598C72.8118 20.4072 72.5666 20.758 72.3957 21.2124C72.2248 21.6667 72.1393 22.2019 72.1393 22.8182ZM84.2235 14.1818V28H81.3492V14.1818H84.2235ZM91.2085 28.2024C90.1604 28.2024 89.254 27.9798 88.4893 27.5344C87.7292 27.0846 87.1422 26.4594 86.7283 25.6587C86.3145 24.8536 86.1076 23.9202 86.1076 22.8587C86.1076 21.7881 86.3145 20.8525 86.7283 20.0518C87.1422 19.2467 87.7292 18.6214 88.4893 18.1761C89.254 17.7263 90.1604 17.5014 91.2085 17.5014C92.2565 17.5014 93.1606 17.7263 93.9208 18.1761C94.6855 18.6214 95.2747 19.2467 95.6886 20.0518C96.1024 20.8525 96.3093 21.7881 96.3093 22.8587C96.3093 23.9202 96.1024 24.8536 95.6886 25.6587C95.2747 26.4594 94.6855 27.0846 93.9208 27.5344C93.1606 27.9798 92.2565 28.2024 91.2085 28.2024ZM91.2219 25.9759C91.6987 25.9759 92.0968 25.8409 92.4162 25.571C92.7356 25.2966 92.9762 24.9233 93.1381 24.451C93.3046 23.9787 93.3878 23.4412 93.3878 22.8384C93.3878 22.2357 93.3046 21.6982 93.1381 21.2259C92.9762 20.7536 92.7356 20.3802 92.4162 20.1058C92.0968 19.8314 91.6987 19.6942 91.2219 19.6942C90.7406 19.6942 90.3358 19.8314 90.0075 20.1058C89.6836 20.3802 89.4384 20.7536 89.272 21.2259C89.1101 21.6982 89.0291 22.2357 89.0291 22.8384C89.0291 23.4412 89.1101 23.9787 89.272 24.451C89.4384 24.9233 89.6836 25.2966 90.0075 25.571C90.3358 25.8409 90.7406 25.9759 91.2219 25.9759ZM99.6188 31.8864C99.2544 31.8864 98.9126 31.8571 98.5932 31.7987C98.2783 31.7447 98.0175 31.675 97.8105 31.5895L98.4583 29.4439C98.7956 29.5473 99.0993 29.6036 99.3691 29.6126C99.6435 29.6216 99.8797 29.5586 100.078 29.4237C100.28 29.2887 100.444 29.0593 100.57 28.7354L100.739 28.2969L97.0211 17.6364H100.044L102.189 25.2472H102.297L104.463 17.6364H107.506L103.478 29.12C103.285 29.6778 103.022 30.1636 102.689 30.5774C102.36 30.9957 101.944 31.3174 101.441 31.5423C100.937 31.7717 100.329 31.8864 99.6188 31.8864Z" fill="black"/>
<path d="M113.375 28V17.6364H116.249V28H113.375ZM114.818 16.3004C114.391 16.3004 114.025 16.1587 113.719 15.8754C113.417 15.5875 113.267 15.2434 113.267 14.843C113.267 14.4472 113.417 14.1076 113.719 13.8242C114.025 13.5363 114.391 13.3924 114.818 13.3924C115.246 13.3924 115.61 13.5363 115.911 13.8242C116.217 14.1076 116.37 14.4472 116.37 14.843C116.37 15.2434 116.217 15.5875 115.911 15.8754C115.61 16.1587 115.246 16.3004 114.818 16.3004ZM124.064 17.6364V19.7955H117.823V17.6364H124.064ZM119.24 15.1534H122.114V24.8153C122.114 25.0807 122.154 25.2876 122.235 25.4361C122.316 25.58 122.429 25.6812 122.573 25.7397C122.721 25.7982 122.892 25.8274 123.085 25.8274C123.22 25.8274 123.355 25.8162 123.49 25.7937C123.625 25.7667 123.729 25.7464 123.801 25.733L124.253 27.8718C124.109 27.9168 123.906 27.9685 123.645 28.027C123.385 28.09 123.067 28.1282 122.694 28.1417C122.001 28.1687 121.394 28.0765 120.872 27.8651C120.355 27.6536 119.952 27.3253 119.665 26.88C119.377 26.4347 119.235 25.8724 119.24 25.1932V15.1534Z" fill="#724AF6"/>
<path fill-rule="evenodd" clip-rule="evenodd" d="M6.72726 3.28366C4.51813 3.28366 2.72726 5.07452 2.72726 7.28366V34.2837C2.72726 36.4928 4.51813 38.2837 6.72726 38.2837C8.9364 38.2837 10.7273 36.4928 10.7273 34.2837V7.28366C10.7273 5.07452 8.9364 3.28366 6.72726 3.28366Z" fill="url(#paint0_linear_401_2)"/>
<rect y="6.12836" width="8" height="35" rx="4" transform="rotate(-50 0 6.12836)" fill="url(#paint1_linear_401_2)"/>
<rect x="27.9721" y="17.7304" width="8" height="32.2175" rx="4" transform="rotate(60 27.9721 17.7304)" fill="url(#paint2_linear_401_2)"/>
<defs>
<linearGradient id="paint0_linear_401_2" x1="6.72726" y1="3.28366" x2="6.72726" y2="38.2837" gradientUnits="userSpaceOnUse">
<stop stop-color="#CB5EFF"/>
<stop offset="0.9375" stop-color="#42FFB0" stop-opacity="0.68"/>
</linearGradient>
<linearGradient id="paint1_linear_401_2" x1="4" y1="6.12836" x2="4" y2="41.1284" gradientUnits="userSpaceOnUse">
<stop stop-color="#91FFA9"/>
<stop offset="1" stop-color="#001AFF" stop-opacity="0.47"/>
</linearGradient>
<linearGradient id="paint2_linear_401_2" x1="31.9721" y1="17.7304" x2="31.9721" y2="49.9479" gradientUnits="userSpaceOnUse">
<stop stop-color="#00D1FF"/>
<stop offset="1" stop-color="#BD69FF" stop-opacity="0.92"/>
</linearGradient>
</defs>
</svg>
